<svg width="872" height="872" viewBox="0 0 872 872" fill="none" xmlns="http://www.w3.org/2000/svg">
<rect x="1" y="870.577" width="869.155" height="870" rx="16.8932" transform="rotate(-90 1 870.577)" stroke="#666666" stroke-width="2"/>
<path d="M376.098 293.837L376.503 294.751L376.098 293.837ZM376.098 578.131L375.693 579.046L376.098 578.131ZM496.477 580.411L496.107 579.482L496.477 580.411ZM582.328 496.144L581.406 495.757L582.328 496.144ZM582.303 375.765L581.381 376.153L582.303 375.765ZM496.477 291.557L496.107 292.486L496.477 291.557ZM467.812 249.077H404.091V251.077H467.812V249.077ZM485.706 274.93V266.97H483.706V274.93H485.706ZM583.225 375.378C567.003 336.821 535.773 306.134 496.847 290.628L496.107 292.486C534.534 307.793 565.367 338.09 581.381 376.153L583.225 375.378ZM598.799 388.197H604.932V386.197H598.799V388.197ZM620.825 404.09V467.812H622.825V404.09H620.825ZM604.932 483.705H598.826V485.705H604.932V483.705ZM496.847 581.34C535.793 565.827 567.035 535.116 583.249 496.532L581.406 495.757C565.399 533.847 534.554 564.167 496.107 579.482L496.847 581.34ZM485.706 604.933V597.038H483.706V604.933H485.706ZM404.091 622.826H467.812V620.826H404.091V622.826ZM386.198 594.491V604.933H388.198V594.491H386.198ZM294.746 496.531C310.196 533.297 339.291 562.914 375.693 579.046L376.503 577.217C340.566 561.292 311.842 532.051 296.59 495.757L294.746 496.531ZM266.971 485.705H279.169V483.705H266.971V485.705ZM249.078 404.09L249.078 467.812L251.078 467.812L251.078 404.09L249.078 404.09ZM279.197 386.197H266.971V388.197H279.197V386.197ZM375.693 292.923C339.31 309.046 310.227 338.639 294.771 375.378L296.614 376.153C311.873 339.886 340.586 310.668 376.503 294.751L375.693 292.923ZM386.198 266.97V277.477H388.198V266.97H386.198ZM376.503 294.751C383.369 291.708 388.198 285.075 388.198 277.477H386.198C386.198 284.198 381.918 290.164 375.693 292.923L376.503 294.751ZM279.197 388.197C286.932 388.197 293.65 383.199 296.614 376.153L294.771 375.378C292.083 381.767 286.038 386.197 279.197 386.197V388.197ZM251.078 404.09C251.078 395.313 258.193 388.197 266.971 388.197V386.197C257.089 386.197 249.078 394.208 249.078 404.09L251.078 404.09ZM266.971 483.705C258.193 483.705 251.078 476.589 251.078 467.812L249.078 467.812C249.078 477.694 257.089 485.705 266.971 485.705V483.705ZM296.59 495.757C293.627 488.707 286.907 483.705 279.169 483.705V485.705C286.013 485.705 292.06 490.139 294.746 496.531L296.59 495.757ZM388.198 594.491C388.198 586.893 383.369 580.26 376.503 577.217L375.693 579.046C381.918 581.804 386.198 587.77 386.198 594.491H388.198ZM404.091 620.826C395.313 620.826 388.198 613.711 388.198 604.933H386.198C386.198 614.815 394.209 622.826 404.091 622.826V620.826ZM483.706 604.933C483.706 613.711 476.59 620.826 467.812 620.826V622.826C477.694 622.826 485.706 614.815 485.706 604.933H483.706ZM496.107 579.482C488.879 582.361 483.706 589.165 483.706 597.038H485.706C485.706 590.075 490.292 583.951 496.847 581.34L496.107 579.482ZM598.826 483.705C591.089 483.705 584.368 488.707 581.406 495.757L583.249 496.532C585.936 490.139 591.983 485.705 598.826 485.705V483.705ZM620.825 467.812C620.825 476.589 613.71 483.705 604.932 483.705V485.705C614.814 485.705 622.825 477.694 622.825 467.812H620.825ZM604.932 388.197C613.71 388.197 620.825 395.313 620.825 404.09H622.825C622.825 394.208 614.814 386.197 604.932 386.197V388.197ZM581.381 376.153C584.345 383.199 591.064 388.197 598.799 388.197V386.197C591.958 386.197 585.913 381.767 583.225 375.378L581.381 376.153ZM483.706 274.93C483.706 282.803 488.879 289.607 496.107 292.486L496.847 290.628C490.292 288.017 485.706 281.894 485.706 274.93H483.706ZM404.091 249.077C394.209 249.077 386.198 257.088 386.198 266.97H388.198C388.198 258.193 395.313 251.077 404.091 251.077V249.077ZM467.812 251.077C476.59 251.077 483.706 258.193 483.706 266.97H485.706C485.706 257.088 477.694 249.077 467.812 249.077V251.077Z" fill="#666666"/>
<path d="M1 250.175H88.8447C98.1745 250.175 105.738 257.738 105.738 267.068V604.932C105.738 614.262 98.1745 621.825 88.8447 621.825H1" stroke="#666666" stroke-width="2"/>
<path d="M250.175 871L250.175 783.155C250.175 773.825 257.738 766.262 267.068 766.262L604.932 766.262C614.262 766.262 621.825 773.825 621.825 783.155L621.825 871" stroke="#666666" stroke-width="2"/>
<path d="M871 250.175H783.155C773.825 250.175 766.262 257.738 766.262 267.068V604.932C766.262 614.262 773.825 621.825 783.155 621.825H871" stroke="#666666" stroke-width="2"/>
<path d="M250.175 1L250.175 88.8447C250.175 98.1745 257.738 105.738 267.068 105.738L604.932 105.738C614.262 105.738 621.825 98.1745 621.825 88.8447L621.825 0.999984" stroke="#666666" stroke-width="2"/>
<rect x="580.585" y="254.52" width="51.9999" height="51.9999" rx="16.8932" transform="rotate(45 580.585 254.52)" stroke="#666666" stroke-width="2"/>
<rect x="580.516" y="543.271" width="51.9999" height="51.9999" rx="16.8932" transform="rotate(45 580.516 543.271)" stroke="#666666" stroke-width="2"/>
<rect x="291.167" y="254.52" width="51.9999" height="51.9999" rx="16.8932" transform="rotate(45 291.167 254.52)" stroke="#666666" stroke-width="2"/>
<rect x="291.167" y="543.271" width="51.9999" height="51.9999" rx="16.8932" transform="rotate(45 291.167 543.271)" stroke="#666666" stroke-width="2"/>
<path d="M250.175 1.42285L201.083 27.6052C127.148 67.0371 66.6142 127.571 27.1823 201.506L1 250.598" stroke="#666666" stroke-width="2"/>
<path d="M250.175 871L201.083 844.818C127.148 805.386 66.6142 744.852 27.1823 670.917L1 621.825" stroke="#666666" stroke-width="2"/>
<path d="M621.825 1.42285L670.917 27.6052C744.852 67.0371 805.386 127.571 844.818 201.506L871 250.598" stroke="#666666" stroke-width="2"/>
<path d="M621.825 871L670.917 844.818C744.852 805.386 805.386 744.852 844.818 670.917L871 621.825" stroke="#666666" stroke-width="2"/>
</svg>
