<svg width="1164" height="1164" viewBox="0 0 1164 1164" fill="none" xmlns="http://www.w3.org/2000/svg">
<g opacity="0.6">
<path d="M38.4566 535.793C30.9314 535.793 24.999 529.338 25.7983 521.855C53.6524 261.107 260.666 53.9267 521.338 25.8168C528.789 25.0133 535.222 30.9189 535.222 38.4132V38.4132C535.222 47.2802 542.41 54.4684 551.277 54.4684H612.604C621.471 54.4684 628.659 47.2802 628.659 38.4132V38.4132C628.659 30.913 635.096 25.0023 642.553 25.805C903.236 53.8642 1110.28 261.005 1138.19 521.733C1139 529.281 1133.01 535.793 1125.42 535.793V535.793C1116.55 535.793 1109.37 542.981 1109.37 551.848V613.175C1109.37 622.042 1116.55 629.23 1125.42 629.23V629.23C1132.96 629.23 1138.9 635.703 1138.08 643.196C1109.75 903.407 902.965 1110.02 642.678 1138.1C635.154 1138.91 628.659 1132.95 628.659 1125.38V1125.38C628.659 1116.51 621.471 1109.32 612.604 1109.32H551.277C542.41 1109.32 535.222 1116.51 535.222 1125.38V1125.38C535.222 1132.94 528.732 1138.9 521.214 1138.09C260.937 1109.96 54.1829 903.305 25.9071 643.074C25.1001 635.646 30.9854 629.23 38.4566 629.23V629.23C47.3236 629.23 54.5117 622.042 54.5117 613.175V551.848C54.5117 542.981 47.3236 535.793 38.4566 535.793V535.793Z" stroke="black" stroke-width="2" stroke-dasharray="7.78 3.89"/>
<path d="M62.4508 516.509C53.1246 516.509 45.8802 508.337 47.2957 499.118C82.9945 266.65 266.688 82.9568 499.156 47.258C508.374 45.8424 516.547 53.0868 516.547 62.413V105.688C516.547 113.443 510.813 119.987 503.167 121.285C308.241 154.379 154.417 308.203 121.323 503.129C120.025 510.775 113.481 516.509 105.726 516.509H62.4508Z" stroke="black" stroke-width="2" stroke-dasharray="7.78 3.89"/>
<path d="M62.4508 647.285C53.1245 647.285 45.8801 655.457 47.2957 664.676C82.9943 897.144 266.688 1080.84 499.156 1116.54C508.374 1117.95 516.547 1110.71 516.547 1101.38V1058.11C516.547 1050.35 510.813 1043.81 503.167 1042.51C308.241 1009.42 154.417 855.591 121.323 660.665C120.025 653.019 113.481 647.285 105.726 647.285H62.4508Z" stroke="black" stroke-width="2" stroke-dasharray="7.78 3.89"/>
<path d="M1058.14 647.284C1050.39 647.284 1043.85 653.019 1042.55 660.664C1009.45 855.591 855.629 1009.42 660.702 1042.51C653.056 1043.81 647.322 1050.35 647.322 1058.11V1101.38C647.322 1110.71 655.495 1117.95 664.713 1116.54C897.182 1080.84 1080.88 897.144 1116.57 664.676C1117.99 655.457 1110.75 647.284 1101.42 647.284H1058.14Z" stroke="black" stroke-width="2" stroke-dasharray="7.78 3.89"/>
<path d="M1101.42 516.509C1110.75 516.509 1117.99 508.337 1116.57 499.118C1080.88 266.65 897.182 82.9564 664.713 47.2579C655.495 45.8423 647.322 53.0867 647.322 62.413V105.688C647.322 113.443 653.056 119.987 660.702 121.285C855.629 154.378 1009.45 308.203 1042.55 503.129C1043.85 510.775 1050.39 516.509 1058.14 516.509H1101.42Z" stroke="black" stroke-width="2" stroke-dasharray="7.78 3.89"/>
</g>
<path opacity="0.6" d="M535.97 135.063H536.97V133.956L535.869 134.068L535.97 135.063ZM134.936 536.126L133.941 536.026L133.83 537.126H134.936V536.126ZM627.512 135.043L627.613 134.049L626.512 133.937V135.043H627.512ZM1028.74 536.126V537.126H1029.84L1029.73 536.026L1028.74 536.126ZM1028.75 627.669L1029.74 627.769L1029.85 626.669H1028.75V627.669ZM627.512 1028.87H626.512V1029.98L627.613 1029.87L627.512 1028.87ZM535.97 1028.86L535.869 1029.85L536.97 1029.96V1028.86H535.97ZM134.924 627.669V626.669H133.817L133.929 627.769L134.924 627.669ZM535.869 134.068C323.919 155.562 155.42 324.071 133.941 536.026L135.931 536.227C157.314 325.218 325.066 157.456 536.071 136.058L535.869 134.068ZM536.97 149.055V135.063H534.97V149.055H536.97ZM551.521 163.606C543.484 163.606 536.97 157.092 536.97 149.055H534.97C534.97 158.196 542.38 165.606 551.521 165.606V163.606ZM611.961 163.606H551.521V165.606H611.961V163.606ZM626.512 149.055C626.512 157.091 619.997 163.606 611.961 163.606V165.606C621.102 165.606 628.512 158.196 628.512 149.055H626.512ZM626.512 135.043V149.055H628.512V135.043H626.512ZM1029.73 536.026C1008.24 324.008 839.652 155.462 627.613 134.049L627.412 136.038C838.505 157.356 1006.35 325.155 1027.74 536.227L1029.73 536.026ZM1014.93 537.126H1028.74V535.126H1014.93V537.126ZM1000.38 551.677C1000.38 543.641 1006.9 537.126 1014.93 537.126V535.126C1005.79 535.126 998.382 542.537 998.382 551.677H1000.38ZM1000.38 612.118V551.677H998.382V612.118H1000.38ZM1014.93 626.669C1006.9 626.669 1000.38 620.154 1000.38 612.118H998.382C998.382 621.259 1005.79 628.669 1014.93 628.669V626.669ZM1028.75 626.669H1014.93V628.669H1028.75V626.669ZM627.613 1029.87C839.693 1008.45 1008.31 839.845 1029.74 627.769L1027.75 627.568C1006.42 838.698 838.546 1006.56 627.412 1027.88L627.613 1029.87ZM626.512 1015.06V1028.87H628.512V1015.06H626.512ZM611.961 1000.5C619.997 1000.5 626.512 1007.02 626.512 1015.06H628.512C628.512 1005.91 621.102 998.505 611.961 998.505V1000.5ZM551.521 1000.5H611.961V998.505H551.521V1000.5ZM536.97 1015.06C536.97 1007.02 543.484 1000.5 551.521 1000.5V998.505C542.38 998.505 534.97 1005.91 534.97 1015.06H536.97ZM536.97 1028.86V1015.06H534.97V1028.86H536.97ZM133.929 627.769C155.355 839.781 323.878 1008.35 535.869 1029.85L536.071 1027.86C325.025 1006.46 157.249 838.635 135.919 627.568L133.929 627.769ZM149.099 626.669H134.924V628.669H149.099V626.669ZM163.65 612.118C163.65 620.154 157.135 626.669 149.099 626.669V628.669C158.24 628.669 165.65 621.259 165.65 612.118H163.65ZM163.65 551.677V612.118H165.65V551.677H163.65ZM149.099 537.126C157.135 537.126 163.65 543.641 163.65 551.677H165.65C165.65 542.537 158.24 535.126 149.099 535.126V537.126ZM134.936 537.126H149.099V535.126H134.936V537.126Z" fill="black"/>
<g opacity="0.6">
<path d="M771.181 410.095C759.618 413.194 749.036 402.612 752.135 391.049L772.587 314.722C775.685 303.158 790.139 299.285 798.604 307.75L854.48 363.626C862.945 372.091 859.072 386.545 847.508 389.643L771.181 410.095Z" stroke="black" stroke-width="2"/>
<path d="M771.181 754.141C759.618 751.042 749.036 761.624 752.135 773.187L772.587 849.514C775.685 861.078 790.139 864.951 798.604 856.486L854.48 800.61C862.945 792.145 859.072 777.691 847.508 774.593L771.181 754.141Z" stroke="black" stroke-width="2"/>
<path d="M389.041 410.095C400.604 413.194 411.185 402.612 408.087 391.049L387.635 314.722C384.536 303.158 370.082 299.285 361.617 307.75L305.742 363.626C297.277 372.091 301.15 386.545 312.713 389.643L389.041 410.095Z" stroke="black" stroke-width="2"/>
<path d="M389.041 754.141C400.604 751.042 411.185 761.624 408.087 773.187L387.635 849.514C384.536 861.078 370.082 864.951 361.617 856.486L305.742 800.61C297.277 792.145 301.15 777.691 312.713 774.593L389.041 754.141Z" stroke="black" stroke-width="2"/>
</g>
<circle opacity="0.6" cx="582" cy="582" r="581" stroke="black" stroke-width="2"/>
<path opacity="0.6" d="M488.893 539.43L487.984 539.013L488.893 539.43ZM537.975 674.427L537.545 675.33L537.975 674.427ZM621.907 676.28L622.298 677.2L621.907 676.28ZM675.723 623.195L676.638 623.598L675.723 623.195ZM675.722 540.805L676.638 540.402L675.722 540.805ZM621.908 487.721L621.517 488.642L621.908 487.721ZM597.974 458.58H563.049V460.58H597.974V458.58ZM676.638 540.402C666.043 516.334 646.538 497.074 622.298 486.8L621.517 488.642C645.288 498.716 664.418 517.605 674.807 541.208L676.638 540.402ZM701.412 563.355V600.645H703.412V563.355H701.412ZM622.298 677.2C646.538 666.927 666.043 647.667 676.638 623.598L674.807 622.792C664.418 646.395 645.288 665.284 621.517 675.359L622.298 677.2ZM563.049 705.421H597.974V703.421H563.049V705.421ZM487.984 624.987C498.077 647.027 515.692 664.903 537.545 675.33L538.406 673.525C516.976 663.299 499.7 645.768 489.802 624.155L487.984 624.987ZM473.123 615.111H473.542V613.111H473.123V615.111ZM456.572 565.441L456.572 598.56L458.572 598.56L458.572 565.441L456.572 565.441ZM473.543 548.89H473.123V550.89H473.543V548.89ZM537.545 488.671C515.692 499.098 498.077 516.973 487.984 539.013L489.802 539.846C499.7 518.233 516.976 500.702 538.406 490.476L537.545 488.671ZM538.406 490.476C544.5 487.568 548.882 481.618 548.882 474.747H546.882C546.882 480.732 543.054 486.043 537.545 488.671L538.406 490.476ZM473.543 550.89C480.704 550.89 486.872 546.244 489.802 539.846L487.984 539.013C485.326 544.817 479.801 548.89 473.543 548.89V550.89ZM458.572 565.441C458.572 557.405 465.087 550.89 473.123 550.89V548.89C463.982 548.89 456.572 556.3 456.572 565.441L458.572 565.441ZM473.123 613.111C465.087 613.111 458.572 606.596 458.572 598.56L456.572 598.56C456.572 607.7 463.982 615.111 473.123 615.111V613.111ZM489.802 624.155C486.872 617.757 480.704 613.111 473.542 613.111V615.111C479.801 615.111 485.326 619.183 487.984 624.987L489.802 624.155ZM548.882 689.254C548.882 682.383 544.5 676.432 538.406 673.525L537.545 675.33C543.054 677.958 546.882 683.269 546.882 689.254H548.882ZM563.049 703.421C555.225 703.421 548.882 697.078 548.882 689.254H546.882C546.882 698.183 554.12 705.421 563.049 705.421V703.421ZM611.103 690.292C611.103 697.543 605.225 703.421 597.974 703.421V705.421C606.329 705.421 613.103 698.648 613.103 690.292H611.103ZM621.517 675.359C615.491 677.913 611.103 683.63 611.103 690.292H613.103C613.103 684.546 616.899 679.488 622.298 677.2L621.517 675.359ZM688.947 613.111C682.688 613.111 677.285 617.163 674.807 622.792L676.638 623.598C678.841 618.592 683.587 615.111 688.947 615.111V613.111ZM701.412 600.645C701.412 607.53 695.832 613.111 688.947 613.111V615.111C696.936 615.111 703.412 608.634 703.412 600.645H701.412ZM688.947 550.89C695.831 550.89 701.412 556.471 701.412 563.355H703.412C703.412 555.366 696.936 548.89 688.947 548.89V550.89ZM674.807 541.208C677.285 546.838 682.687 550.89 688.947 550.89V548.89C683.586 548.89 678.841 545.408 676.638 540.402L674.807 541.208ZM611.103 473.708C611.103 480.371 615.491 486.088 621.517 488.642L622.298 486.8C616.899 484.512 613.103 479.454 613.103 473.708H611.103ZM563.049 458.58C554.12 458.58 546.882 465.818 546.882 474.747H548.882C548.882 466.922 555.225 460.58 563.049 460.58V458.58ZM597.974 460.58C605.225 460.58 611.103 466.458 611.103 473.708H613.103C613.103 465.353 606.329 458.58 597.974 458.58V460.58Z" fill="black"/>
<path opacity="0.6" d="M634.105 276.249C634.924 276.249 635.588 276.913 635.588 277.732V326.745C635.588 327.564 634.924 328.228 634.105 328.228C619.682 328.228 607.988 339.92 607.988 354.343C607.988 355.162 607.324 355.826 606.504 355.826H557.485C556.672 355.826 556.014 355.169 556.014 354.343C556.014 339.92 544.319 328.228 529.896 328.228C529.077 328.228 528.413 327.564 528.413 326.745L528.413 277.732C528.413 276.913 529.077 276.249 529.896 276.249C544.319 276.249 556.014 264.557 556.014 250.134C556.014 249.308 556.672 248.651 557.485 248.651H606.504C607.324 248.651 607.988 249.315 607.988 250.134C607.988 264.557 619.682 276.249 634.105 276.249Z" stroke="black" stroke-width="2"/>
<path opacity="0.6" d="M634.105 835.772C634.924 835.772 635.588 836.436 635.588 837.255V886.268C635.588 887.087 634.924 887.751 634.105 887.751C619.682 887.751 607.988 899.443 607.988 913.866C607.988 914.685 607.324 915.349 606.504 915.349H557.485C556.672 915.349 556.014 914.691 556.014 913.866C556.014 899.443 544.319 887.751 529.896 887.751C529.077 887.751 528.413 887.087 528.413 886.268L528.413 837.255C528.413 836.436 529.077 835.772 529.896 835.772C544.319 835.772 556.014 824.08 556.014 809.657C556.014 808.831 556.672 808.174 557.485 808.174H606.504C607.324 808.174 607.988 808.838 607.988 809.657C607.988 824.08 619.682 835.772 634.105 835.772Z" stroke="black" stroke-width="2"/>
<path opacity="0.6" d="M352.336 556.01C353.156 556.01 353.82 556.674 353.82 557.493V606.506C353.82 607.325 353.156 607.989 352.336 607.989C337.914 607.989 326.219 619.681 326.219 634.104C326.219 634.923 325.555 635.587 324.736 635.587H275.716C274.903 635.587 274.245 634.93 274.245 634.104C274.245 619.681 262.551 607.989 248.128 607.989C247.308 607.989 246.645 607.325 246.645 606.506L246.645 557.493C246.645 556.674 247.308 556.01 248.128 556.01C262.551 556.01 274.245 544.318 274.245 529.895C274.245 529.07 274.903 528.412 275.716 528.412H324.736C325.555 528.412 326.219 529.076 326.219 529.895C326.219 544.318 337.914 556.01 352.336 556.01Z" stroke="black" stroke-width="2"/>
<path opacity="0.6" d="M911.858 556.01C912.677 556.01 913.341 556.674 913.341 557.493V606.506C913.341 607.325 912.677 607.989 911.858 607.989C897.435 607.989 885.74 619.681 885.74 634.104C885.74 634.923 885.076 635.587 884.257 635.587H835.237C834.424 635.587 833.766 634.93 833.766 634.104C833.766 619.681 822.072 607.989 807.649 607.989C806.83 607.989 806.166 607.325 806.166 606.506L806.166 557.493C806.166 556.674 806.83 556.01 807.649 556.01C822.072 556.01 833.766 544.318 833.766 529.895C833.766 529.07 834.424 528.412 835.237 528.412H884.257C885.076 528.412 885.74 529.076 885.74 529.895C885.74 544.318 897.435 556.01 911.858 556.01Z" stroke="black" stroke-width="2"/>
<path opacity="0.6" d="M529.804 408.848H524.54C524.21 404.967 521.609 403.027 516.737 403.027C514.714 403.027 513.124 403.419 511.968 404.203C510.812 404.988 510.234 406.041 510.234 407.362C510.234 407.733 510.275 408.105 510.358 408.477C510.441 408.807 510.585 409.117 510.791 409.406C511.039 409.653 511.246 409.88 511.411 410.087C511.617 410.293 511.927 410.5 512.34 410.706C512.794 410.871 513.124 411.016 513.331 411.14C513.578 411.263 513.991 411.408 514.569 411.573C515.189 411.697 515.622 411.8 515.87 411.883C516.117 411.924 516.592 412.027 517.294 412.192C518.037 412.358 518.512 412.461 518.719 412.502C520.246 412.832 521.382 413.101 522.125 413.307C522.909 413.514 523.962 413.906 525.283 414.484C526.646 415.021 527.678 415.599 528.38 416.218C529.082 416.796 529.701 417.622 530.238 418.695C530.816 419.727 531.105 420.904 531.105 422.225C531.105 425.322 529.887 427.819 527.451 429.719C525.056 431.577 521.856 432.506 517.852 432.506C513.516 432.506 510.172 431.556 507.819 429.657C505.507 427.758 504.268 425.012 504.103 421.42H509.305C509.594 425.92 512.484 428.17 517.975 428.17C520.329 428.17 522.207 427.696 523.611 426.746C525.056 425.755 525.779 424.455 525.779 422.844C525.779 421.771 525.407 420.883 524.664 420.181C523.921 419.48 523.095 418.984 522.187 418.695C521.278 418.365 519.978 417.993 518.285 417.58C518.037 417.539 517.852 417.498 517.728 417.456C517.356 417.374 516.551 417.209 515.312 416.961C514.115 416.672 513.248 416.445 512.711 416.28C512.175 416.115 511.39 415.867 510.358 415.537C509.367 415.165 508.624 414.793 508.128 414.422C507.633 414.009 507.076 413.514 506.456 412.936C505.878 412.316 505.465 411.614 505.218 410.83C504.97 410.004 504.846 409.075 504.846 408.043C504.846 405.153 505.94 402.862 508.128 401.169C510.358 399.476 513.331 398.63 517.046 398.63C520.804 398.63 523.859 399.517 526.212 401.293C528.607 403.068 529.804 405.587 529.804 408.848ZM542.314 387.42V404.08C544.667 400.529 548.156 398.754 552.78 398.754C559.964 398.754 563.556 402.387 563.556 409.653V431.515H558.292V410.892C558.292 408.456 557.776 406.598 556.744 405.318C555.753 403.997 553.936 403.336 551.294 403.336C548.074 403.336 545.761 404.369 544.358 406.433C542.995 408.497 542.314 411.449 542.314 415.289V431.515H537.05V387.42H542.314ZM599.764 427.303V431.391C598.691 431.804 597.494 432.01 596.173 432.01C593.159 432.01 591.61 430.441 591.528 427.303C588.514 430.689 584.653 432.382 579.947 432.382C576.809 432.382 574.311 431.577 572.453 429.966C570.637 428.356 569.728 426.147 569.728 423.34C569.728 417.642 573.506 414.319 581.062 413.369C581.557 413.287 582.28 413.204 583.229 413.121C586.821 412.708 589.03 412.234 589.856 411.697C590.805 411.036 591.28 409.901 591.28 408.291C591.28 404.781 588.865 403.027 584.034 403.027C581.557 403.027 579.678 403.543 578.399 404.575C577.119 405.566 576.355 407.217 576.107 409.529H570.967C571.049 406.103 572.267 403.44 574.621 401.54C576.974 399.641 580.215 398.692 584.344 398.692C588.844 398.692 592.188 399.724 594.377 401.788C595.078 402.449 595.595 403.316 595.925 404.389C596.255 405.463 596.441 406.35 596.482 407.052C596.523 407.713 596.544 408.724 596.544 410.087C596.544 411.656 596.503 414.03 596.42 417.209C596.338 420.388 596.296 422.762 596.296 424.331C596.296 425.487 596.441 426.313 596.73 426.808C597.06 427.262 597.638 427.489 598.464 427.489C598.794 427.489 599.228 427.427 599.764 427.303ZM591.28 414.917C590.908 415.206 590.516 415.454 590.103 415.66C589.69 415.867 589.154 416.032 588.493 416.156C587.874 416.28 587.44 416.383 587.193 416.466C586.986 416.507 586.449 416.589 585.582 416.713C584.715 416.796 584.261 416.837 584.22 416.837C582.94 417.002 582.094 417.126 581.681 417.209C581.309 417.25 580.566 417.415 579.451 417.704C578.378 417.993 577.614 418.323 577.16 418.695C576.706 419.067 576.252 419.624 575.797 420.367C575.385 421.069 575.178 421.915 575.178 422.906C575.178 424.558 575.736 425.858 576.85 426.808C578.006 427.758 579.575 428.232 581.557 428.232C584.075 428.232 586.326 427.489 588.307 426.003C590.289 424.517 591.28 422.762 591.28 420.739V414.917ZM621.385 398.815V404.265C621.013 404.224 620.559 404.203 620.022 404.203C618.33 404.203 616.864 404.472 615.625 405.008C614.387 405.504 613.396 406.165 612.653 406.99C611.951 407.816 611.373 408.848 610.919 410.087C610.465 411.325 610.155 412.564 609.99 413.803C609.866 415.041 609.804 416.445 609.804 418.014V431.515H604.54V399.559H609.556V406.433C611.662 401.355 615.605 398.815 621.385 398.815ZM630.303 399.559V404.08C632.615 400.405 636.207 398.568 641.079 398.568C645.538 398.568 649.068 400.075 651.669 403.089C654.312 406.103 655.633 410.19 655.633 415.351C655.633 420.512 654.332 424.64 651.731 427.737C649.171 430.792 645.703 432.32 641.327 432.32C636.744 432.32 633.173 430.565 630.613 427.056V443.839H625.349V399.559H630.303ZM640.274 402.965C637.219 402.965 634.804 404.08 633.028 406.309C631.294 408.497 630.427 411.532 630.427 415.413C630.427 419.294 631.315 422.349 633.09 424.578C634.907 426.767 637.363 427.861 640.46 427.861C643.474 427.861 645.848 426.746 647.582 424.517C649.316 422.287 650.183 419.252 650.183 415.413C650.183 411.532 649.295 408.497 647.52 406.309C645.786 404.08 643.371 402.965 640.274 402.965Z" fill="black"/>
<path opacity="0.6" d="M657.628 764.442L657.628 759.921C655.316 763.595 651.724 765.433 646.852 765.433C642.393 765.433 638.863 763.926 636.262 760.912C633.62 757.898 632.298 753.811 632.298 748.65C632.298 743.489 633.599 739.36 636.2 736.264C638.76 733.208 642.228 731.681 646.604 731.681C651.187 731.681 654.758 733.435 657.318 736.945L657.318 720.162L662.582 720.162L662.582 764.442L657.628 764.442ZM647.657 761.036C650.712 761.036 653.128 759.921 654.903 757.691C656.637 755.503 657.504 752.469 657.504 748.588C657.504 744.707 656.616 741.652 654.841 739.422C653.024 737.234 650.568 736.14 647.471 736.14C644.457 736.14 642.083 737.254 640.349 739.484C638.615 741.713 637.748 744.748 637.748 748.588C637.748 752.469 638.636 755.503 640.411 757.691C642.145 759.921 644.561 761.036 647.657 761.036ZM623.333 760.788C620.525 763.843 616.706 765.371 611.875 765.371C607.045 765.371 603.288 763.905 600.604 760.974C597.921 758.042 596.579 753.934 596.579 748.65C596.579 743.241 597.92 739.03 600.604 736.016C603.288 733.002 607.066 731.495 611.937 731.495C616.809 731.495 620.628 732.981 623.394 735.954C626.161 738.927 627.544 743.055 627.544 748.34C627.544 753.583 626.14 757.733 623.333 760.788ZM604.692 757.568C606.467 759.838 608.903 760.974 611.999 760.974C615.096 760.974 617.552 759.838 619.369 757.568C621.186 755.297 622.094 752.262 622.094 748.464C622.094 744.542 621.206 741.466 619.431 739.236C617.614 737.048 615.096 735.954 611.875 735.954C608.779 735.954 606.364 737.069 604.63 739.298C602.854 741.528 601.967 744.604 601.967 748.526C601.967 752.324 602.875 755.338 604.692 757.568ZM593.221 764.442L587.399 764.442L580.092 738.122L573.589 764.442L567.829 764.442L561.079 738.122L553.833 764.442L548.383 764.442L558.602 732.486L564.176 732.486L570.74 757.753L577.243 732.486L582.94 732.486L593.221 764.442ZM516.067 742.58C517.678 735.149 522.322 731.433 530.002 731.433C534.708 731.433 538.404 732.899 541.087 735.83C543.73 738.761 545.051 742.828 545.051 748.03C545.051 753.191 543.688 757.361 540.963 760.54C538.197 763.761 534.605 765.371 530.187 765.371C525.274 765.371 521.641 763.699 519.288 760.354C516.893 757.052 515.696 752.861 515.696 747.783L515.696 747.039L539.725 747.039L539.787 746.668C539.787 743.282 538.899 740.619 537.124 738.679C535.348 736.738 532.912 735.768 529.816 735.768C527.504 735.768 525.687 736.305 524.366 737.378C523.004 738.452 521.951 740.186 521.208 742.58L516.067 742.58ZM521.146 751.313C521.393 754.368 522.322 756.742 523.933 758.435C525.543 760.169 527.669 761.036 530.311 761.036C532.871 761.036 534.997 760.169 536.69 758.435C538.383 756.701 539.394 754.327 539.725 751.313L521.146 751.313ZM493.456 765.185L493.456 759.735C493.828 759.776 494.282 759.797 494.819 759.797C496.511 759.797 497.977 759.529 499.216 758.992C500.454 758.497 501.445 757.836 502.188 757.01C502.89 756.185 503.468 755.152 503.922 753.914C504.376 752.675 504.686 751.437 504.851 750.198C504.975 748.959 505.037 747.556 505.037 745.987L505.037 732.486L510.301 732.486L510.301 764.442L505.285 764.442L505.285 757.568C503.179 762.646 499.236 765.185 493.456 765.185Z" fill="black"/>
<path opacity="0.6" d="M753.146 557.768L753.146 552.504C757.027 552.173 758.968 549.572 758.968 544.7C758.968 542.677 758.576 541.088 757.791 539.932C757.007 538.776 755.954 538.198 754.633 538.198C754.261 538.198 753.89 538.239 753.518 538.322C753.188 538.404 752.878 538.549 752.589 538.755C752.341 539.003 752.114 539.209 751.908 539.374C751.701 539.581 751.495 539.89 751.289 540.303C751.123 540.757 750.979 541.088 750.855 541.294C750.731 541.542 750.587 541.955 750.422 542.533C750.298 543.152 750.194 543.586 750.112 543.833C750.071 544.081 749.967 544.556 749.802 545.258C749.637 546.001 749.534 546.476 749.493 546.682C749.162 548.21 748.894 549.345 748.687 550.088C748.481 550.873 748.089 551.926 747.511 553.247C746.974 554.609 746.396 555.641 745.777 556.343C745.199 557.045 744.373 557.664 743.3 558.201C742.267 558.779 741.091 559.068 739.77 559.068C736.673 559.068 734.175 557.85 732.276 555.414C730.418 553.02 729.489 549.82 729.489 545.815C729.489 541.48 730.439 538.136 732.338 535.782C734.237 533.47 736.983 532.232 740.575 532.067L740.575 537.269C736.074 537.558 733.824 540.448 733.824 545.939C733.824 548.292 734.299 550.171 735.249 551.575C736.239 553.02 737.54 553.742 739.15 553.742C740.224 553.742 741.111 553.371 741.813 552.627C742.515 551.884 743.011 551.059 743.3 550.15C743.63 549.242 744.001 547.941 744.414 546.249C744.456 546.001 744.497 545.815 744.538 545.691C744.621 545.32 744.786 544.515 745.034 543.276C745.323 542.079 745.55 541.212 745.715 540.675C745.88 540.138 746.128 539.354 746.458 538.322C746.83 537.331 747.201 536.587 747.573 536.092C747.986 535.597 748.481 535.039 749.059 534.42C749.678 533.842 750.38 533.429 751.165 533.181C751.99 532.934 752.919 532.81 753.952 532.81C756.842 532.81 759.133 533.904 760.826 536.092C762.519 538.322 763.365 541.294 763.365 545.01C763.365 548.767 762.477 551.822 760.702 554.176C758.927 556.57 756.408 557.768 753.146 557.768ZM758.782 567.553C761.837 570.36 763.365 574.179 763.365 579.01C763.365 583.84 761.899 587.597 758.968 590.281C756.037 592.965 751.928 594.306 746.644 594.306C741.235 594.306 737.024 592.965 734.01 590.281C730.996 587.597 729.489 583.82 729.489 578.948C729.489 574.076 730.975 570.257 733.948 567.491C736.921 564.724 741.049 563.341 746.334 563.341C751.578 563.341 755.727 564.745 758.782 567.553ZM755.562 586.194C757.833 584.418 758.968 581.982 758.968 578.886C758.968 575.789 757.833 573.333 755.562 571.516C753.291 569.7 750.256 568.791 746.458 568.791C742.536 568.791 739.46 569.679 737.23 571.454C735.042 573.271 733.948 575.789 733.948 579.01C733.948 582.106 735.063 584.522 737.292 586.256C739.522 588.031 742.598 588.919 746.52 588.919C750.318 588.919 753.332 588.01 755.562 586.194ZM774.698 615.005L770.115 615.005C770.281 614.096 770.363 613.126 770.363 612.094C770.363 610.443 770.095 609.348 769.558 608.812C769.021 608.316 767.865 608.069 766.09 608.069L762.436 608.069L762.436 614.2L758.101 614.2L758.101 608.069L730.48 608.069L730.48 602.743L758.101 602.743L758.101 597.355L762.436 597.355L762.436 602.743L766.709 602.743C769.599 602.743 771.684 603.486 772.964 604.972C774.285 606.458 774.946 608.667 774.946 611.599C774.946 612.507 774.863 613.642 774.698 615.005ZM762.436 632.587L758.101 632.587L758.101 626.208L739.46 626.208C738.428 626.208 737.746 626.208 737.416 626.208C737.086 626.249 736.632 626.373 736.054 626.579C735.517 626.786 735.166 627.137 735.001 627.632C734.836 628.128 734.753 628.83 734.753 629.738C734.753 630.522 734.815 631.472 734.939 632.587L730.418 632.587C730.253 631.1 730.17 629.759 730.17 628.561C730.17 627.075 730.335 625.836 730.666 624.845C730.996 623.854 731.368 623.091 731.781 622.554C732.193 622.059 732.916 621.687 733.948 621.439C735.022 621.191 735.909 621.047 736.611 621.006C737.354 620.964 738.572 620.944 740.265 620.944C740.389 620.944 740.471 620.944 740.513 620.944C740.595 620.944 740.698 620.944 740.822 620.944C740.946 620.944 741.049 620.944 741.132 620.944L758.101 620.944L758.101 615.556L762.436 615.556L762.436 620.944L771.911 620.944L771.911 626.208L762.436 626.208L762.436 632.587Z" fill="black"/>
<path opacity="0.6" d="M425.297 584.427L429.384 584.427C429.797 585.5 430.004 586.697 430.004 588.019C430.004 591.033 428.435 592.581 425.297 592.663C428.683 595.677 430.375 599.538 430.375 604.244C430.375 607.382 429.57 609.88 427.96 611.738C426.35 613.555 424.141 614.463 421.334 614.463C415.636 614.463 412.312 610.685 411.363 603.13C411.28 602.634 411.198 601.912 411.115 600.962C410.702 597.37 410.227 595.161 409.691 594.335C409.03 593.386 407.895 592.911 406.284 592.911C402.775 592.911 401.02 595.326 401.02 600.157C401.02 602.634 401.536 604.513 402.569 605.793C403.56 607.072 405.211 607.836 407.523 608.084L407.523 613.224C404.096 613.142 401.433 611.924 399.534 609.57C397.635 607.217 396.685 603.976 396.685 599.847C396.685 595.347 397.717 592.003 399.782 589.815C400.442 589.113 401.309 588.597 402.383 588.266C403.456 587.936 404.344 587.75 405.046 587.709C405.706 587.668 406.718 587.647 408.08 587.647C409.649 587.647 412.023 587.688 415.202 587.771C418.381 587.853 420.755 587.895 422.324 587.895C423.48 587.895 424.306 587.75 424.802 587.461C425.256 587.131 425.483 586.553 425.483 585.727C425.483 585.397 425.421 584.963 425.297 584.427ZM412.911 592.911C413.2 593.283 413.448 593.675 413.654 594.088C413.861 594.501 414.026 595.037 414.15 595.698C414.273 596.317 414.377 596.751 414.459 596.998C414.501 597.205 414.583 597.742 414.707 598.609C414.79 599.476 414.831 599.93 414.831 599.971C414.996 601.251 415.12 602.097 415.202 602.51C415.244 602.882 415.409 603.625 415.698 604.74C415.987 605.813 416.317 606.577 416.689 607.031C417.06 607.485 417.618 607.94 418.361 608.394C419.063 608.807 419.909 609.013 420.9 609.013C422.551 609.013 423.852 608.456 424.802 607.341C425.751 606.185 426.226 604.616 426.226 602.634C426.226 600.116 425.483 597.866 423.997 595.884C422.51 593.902 420.755 592.911 418.732 592.911L412.911 592.911ZM385.414 573.892L391.855 573.892L391.855 579.218L385.414 579.218L385.414 573.892ZM397.552 573.892L429.508 573.892L429.508 579.218L397.552 579.218L397.552 573.892ZM396.809 549.078L402.259 549.078C402.218 549.449 402.197 549.903 402.197 550.44C402.197 552.133 402.465 553.598 403.002 554.837C403.498 556.076 404.158 557.067 404.984 557.81C405.81 558.512 406.842 559.09 408.08 559.544C409.319 559.998 410.558 560.308 411.796 560.473C413.035 560.597 414.439 560.658 416.007 560.658L429.508 560.658L429.508 565.923L397.552 565.923L397.552 560.906L404.427 560.906C399.348 558.801 396.809 554.858 396.809 549.078Z" fill="black"/>
</svg>
